<?xml version="1.0" encoding="UTF-8"?>
<svg width="491px" height="128px" viewBox="0 0 491 128" version="1.1" xmlns="http://www.w3.org/2000/svg" xmlns:xlink="http://www.w3.org/1999/xlink">
    <!-- Generator: Sketch 53.1 (72631) - https://sketchapp.com -->
    <title>hdpi/Group</title>
    <desc>Created with Sketch.</desc>
    <g id="Page-1" stroke="none" stroke-width="1" fill="none" fill-rule="evenodd">
        <g id="Desktop" transform="translate(-256.000000, -434.000000)" fill="#FFFFFF" fill-rule="nonzero">
            <g id="Group" transform="translate(255.000000, 415.000000)">
                <path d="M15.9375,131.15625 C13.7499891,134.125015 11.210952,136.976549 8.3203125,139.710938 L20.9765625,139.710938 C19.7265563,137.445301 18.4765687,135.101575 17.2265625,132.679688 L20.9765625,132.679688 C22.3046941,135.257825 24.414048,138.695291 27.3046875,142.992188 L22.8515625,142.992188 L21.5625,140.648438 L20.5078125,142.523438 L1.5234375,142.523438 C5.89845937,138.226541 9.21873867,134.437516 11.484375,131.15625 L2.8125,131.15625 L3.28125,128.34375 L13.59375,128.34375 L14.4140625,123.421875 L6.4453125,123.421875 L6.9140625,120.609375 L14.8828125,120.609375 L15.46875,116.15625 L19.1015625,116.15625 L18.3984375,120.609375 L26.953125,120.609375 L26.484375,123.421875 L17.9296875,123.421875 L17.2265625,128.34375 L28.4765625,128.34375 L28.125,131.15625 L15.9375,131.15625 Z M51.7803211,131.507812 L49.4925685,132.328125 L48.0763407,143.109375 L43.2829542,143.109375 L42.52037,140.414062 L45.4617662,140.414062 L46.4422317,133.382812 L44.2634196,134.203125 L43.2829542,131.507812 L46.7690535,130.570312 L47.6405783,124.476562 L44.699182,124.476562 L45.1349444,121.898438 L47.9674001,121.898438 L48.7299843,116.15625 L51.5624399,116.15625 L50.7998557,121.898438 L53.3054895,121.898438 L52.8697271,124.476562 L50.4730339,124.476562 L49.8193903,129.515625 L52.2160835,128.578125 L51.7803211,131.507812 Z M61.8636889,121.36854 C61.2066804,122.741624 59.8516204,125.07583 57.7984686,128.37123 L53.9796252,128.37123 C56.4434075,124.984291 57.962717,122.650085 58.5375996,121.36854 L61.8636889,121.36854 Z M66.7912288,121.505848 C67.2839852,122.97047 68.3516082,125.258908 69.9941297,128.37123 L66.4216633,128.37123 L63.7115164,121.505848 L66.7912288,121.505848 Z M63.5580368,133.909498 L66.2207551,133.909498 C67.1438354,136.670638 68.1024044,139.319799 69.0964909,141.857062 L65.9012289,141.857062 C65.0491548,139.245174 64.2680986,136.596012 63.5580368,133.909498 Z M50.9900064,141.857062 C52.4811361,139.46905 53.9012384,136.819888 55.2503557,133.909498 L58.1260915,133.909498 C56.9899927,136.670638 55.7119007,139.319799 54.2917771,141.857062 L50.9900064,141.857062 Z M63.3450193,126.745497 L62.9189844,129.879747 L69.842052,129.879747 L69.5225258,132.342373 L62.5994582,132.342373 L61.2148447,142.8645 L58.2326002,142.8645 L59.6172137,132.342373 L52.9071636,132.342373 L53.3331985,129.879747 L59.9367399,129.879747 L60.3627748,126.745497 L63.3450193,126.745497 Z M70.3279181,116.859375 C70.9201528,116.859375 71.327308,116.976561 71.549396,117.210938 C71.6974547,117.445314 71.7344688,117.796873 71.6604395,118.265625 L70.9941788,123.070312 L67.9960055,123.070312 L68.4401793,119.671875 C68.5142087,119.437499 68.4401805,119.320312 68.2180924,119.320312 L57.5579209,119.320312 L57.0027037,123.070312 L54.0045304,123.070312 L54.8928781,116.859375 L70.3279181,116.859375 Z M111.890625,122.953125 C112.593754,122.953125 113.101561,123.070311 113.414062,123.304688 C113.648439,123.617189 113.726563,124.085934 113.648438,124.710938 L113.0625,128.34375 L109.546875,128.34375 L109.898438,125.765625 C109.976563,125.609374 109.976563,125.492188 109.898438,125.414062 C109.820312,125.335937 109.664064,125.296875 109.429688,125.296875 L91.3828125,125.296875 L90.9140625,128.34375 L87.28125,128.34375 L88.21875,122.953125 L98.8828125,122.953125 L99.234375,120.726562 L89.390625,120.726562 L89.859375,118.148438 L99.46875,118.148438 L99.8203125,116.039062 L103.335938,116.039062 L102.984375,118.148438 L112.828125,118.148438 L112.359375,120.726562 L102.632812,120.726562 L102.28125,122.953125 L111.890625,122.953125 Z M105.09375,135.609375 L100.640625,135.609375 L99.46875,143.109375 L93.4921875,143.109375 L92.90625,140.648438 L96.5390625,140.648438 L97.2421875,135.609375 L86.2265625,135.609375 C86.7734402,135.374999 88.1796762,134.750005 90.4453125,133.734375 C92.6328234,132.79687 94.4296805,132.015628 95.8359375,131.390625 L88.3359375,131.390625 C91.6172039,129.43749 94.3124895,127.75782 96.421875,126.351562 L101.460938,126.351562 C100.601558,126.820315 99.1562602,127.601557 97.125,128.695312 L95.6015625,129.28125 L100.054688,129.28125 L103.21875,127.640625 L109.078125,127.640625 C107.906244,128.265628 106.656257,128.85156 105.328125,129.398438 C103.999993,130.023441 102.593757,130.648434 101.109375,131.273438 C99.5468672,131.976566 98.5312523,132.445311 98.0625,132.679688 C97.4374969,132.914064 96.6953168,133.148436 95.8359375,133.382812 L105.328125,133.382812 L103.570312,131.15625 L107.203125,131.15625 C108.531257,132.640632 110.093741,134.320303 111.890625,136.195312 L107.789062,136.195312 L105.914062,134.085938 L105.09375,135.609375 Z M95.484375,136.3125 C93.2968641,138.578136 91.2265723,140.49218 89.2734375,142.054688 L84.3515625,142.054688 C85.445318,141.351559 86.6953055,140.45313 88.1015625,139.359375 C89.4296941,138.26562 90.5624953,137.250005 91.5,136.3125 L95.484375,136.3125 Z M102.164062,136.3125 L105.796875,136.3125 C108.453138,138.890638 110.601554,140.804681 112.242188,142.054688 L107.554688,142.054688 C106.070305,140.726556 104.273448,138.812512 102.164062,136.3125 Z M137.015625,135.609375 L138.421875,126.234375 L134.554688,126.234375 L132.445312,140.0625 L152.015625,140.0625 L151.546875,142.875 L128.460938,142.875 L130.921875,126.234375 L127.289062,126.234375 L127.757812,123.304688 L131.390625,123.304688 L132.328125,116.976562 L135.84375,116.976562 L134.90625,123.304688 L138.890625,123.304688 L139.945312,116.273438 L143.460938,116.273438 L142.40625,123.304688 L147.328125,123.304688 L148.382812,116.273438 L151.78125,116.273438 L150.84375,123.304688 L154.710938,123.304688 L154.359375,126.234375 L150.375,126.234375 L148.96875,135.609375 L137.015625,135.609375 Z M146.859375,126.234375 L142.054688,126.234375 L141,132.679688 L145.804688,132.679688 L146.859375,126.234375 Z M190.148438,128.578125 C191.867196,130.53126 194.054674,132.523427 196.710938,134.554688 L192.140625,134.554688 C191.437496,134.00781 190.734379,133.343754 190.03125,132.5625 L188.742188,142.640625 L185.34375,142.640625 L186.867188,131.859375 L189.328125,131.859375 C188.937498,131.468748 188.468753,130.921879 187.921875,130.21875 C187.374997,129.593747 186.906252,129.046877 186.515625,128.578125 L181.359375,128.578125 C180.109369,129.750006 178.898443,130.843745 177.726562,131.859375 L180.304688,131.859375 C180.070311,133.187507 179.718752,134.476556 179.25,135.726562 C178.703122,137.054694 178.039066,138.304682 177.257812,139.476562 C176.476559,140.648443 175.539068,141.70312 174.445312,142.640625 L169.523438,142.640625 C171.398447,141.390619 172.999993,139.867196 174.328125,138.070312 C175.578131,136.351554 176.398436,134.515635 176.789062,132.5625 L174.210938,134.554688 L169.289062,134.554688 C170.69532,133.773434 172.062493,132.875005 173.390625,131.859375 C174.718757,130.92187 176.007806,129.828131 177.257812,128.578125 L172.804688,128.578125 L174.5625,116.625 L194.601562,116.625 C195.14844,116.625 195.578123,116.703124 195.890625,116.859375 C196.203127,117.015626 196.281251,117.562495 196.125,118.5 L194.71875,128.578125 L190.148438,128.578125 Z M183.46875,118.96875 L177.375,118.96875 L177.140625,121.3125 L183.117188,121.3125 L183.46875,118.96875 Z M192.84375,119.320312 C192.84375,119.085936 192.765626,118.96875 192.609375,118.96875 L186.632812,118.96875 L186.398438,121.3125 L192.492188,121.3125 L192.84375,119.320312 Z M176.789062,123.65625 L176.4375,126.117188 L182.414062,126.117188 L182.765625,123.65625 L176.789062,123.65625 Z M185.695312,126.117188 L191.789062,126.117188 L192.140625,123.65625 L186.046875,123.65625 L185.695312,126.117188 Z M218.085938,136.78125 L222.1875,136.78125 L221.367188,141 L218.671875,146.507812 L216.09375,145.453125 L218.789062,141 L217.265625,141 L218.085938,136.78125 Z M281.296875,125.882812 L267.234375,125.882812 L265.828125,128.929688 L277.195312,128.929688 C277.664065,128.929688 278.015624,129.007812 278.25,129.164062 C278.484376,129.320313 278.601562,129.671872 278.601562,130.21875 L278.601562,131.039062 C278.523437,131.351564 278.250002,131.781247 277.78125,132.328125 C277.078121,133.187504 276.218755,134.085933 275.203125,135.023438 C274.187495,136.039068 273.210942,136.937496 272.273438,137.71875 C274.148447,139.125007 276.687484,140.882802 279.890625,142.992188 L274.148438,142.992188 C272.74218,141.898432 271.25782,140.687507 269.695312,139.359375 C267.585927,140.921883 265.750008,142.132808 264.1875,142.992188 L258.328125,142.992188 C261.687517,141.195304 264.773423,139.359384 267.585938,137.484375 L263.367188,133.5 C261.492178,136.703141 259.226576,139.867172 256.570312,142.992188 L252.46875,142.992188 C257.156273,137.757786 260.867174,132.054718 263.601562,125.882812 L255.632812,125.882812 C257.19532,122.992173 258.48437,120.179701 259.5,117.445312 L263.132812,117.445312 C262.351559,119.476573 261.45313,121.429678 260.4375,123.304688 L264.773438,123.304688 C265.710942,120.648424 266.41406,118.265636 266.882812,116.15625 L270.398438,116.15625 C270.164061,117.17188 269.851564,118.343743 269.460938,119.671875 C269.070311,121.000007 268.679689,122.210932 268.289062,123.304688 L281.648438,123.304688 L281.296875,125.882812 Z M279.421875,122.25 L275.554688,122.25 C274.617183,120.453116 273.796879,118.734383 273.09375,117.09375 L276.492188,117.09375 C277.351567,118.812509 278.32812,120.531241 279.421875,122.25 Z M273.914062,131.625 L264.421875,131.625 L263.71875,132.914062 L266.765625,132.914062 C267.85938,134.007818 268.914057,134.984371 269.929688,135.84375 C270.632816,135.296872 271.374996,134.632816 272.15625,133.851562 C272.937504,133.148434 273.60156,132.484378 274.148438,131.859375 L274.03125,131.742188 C274.03125,131.664062 273.992188,131.625 273.914062,131.625 Z M305.191106,134.277411 L304.720925,137.425824 L294.847135,141.421886 L295.317315,138.394567 L298.373488,137.304731 L299.54894,129.070421 L296.962947,129.070421 L297.315582,126.40638 L299.901575,126.40638 L300.724391,119.988461 L297.785763,119.988461 L298.138398,117.32442 L307.424463,117.32442 L306.954283,119.988461 L303.898109,119.988461 L302.957748,126.40638 L305.426196,126.40638 L305.073561,129.070421 L302.605113,129.070421 L301.782297,135.851618 L305.191106,134.277411 Z M321.594795,116.673873 C322.493962,116.673873 323.055933,116.788292 323.280725,117.017132 C323.430586,117.245972 323.46805,117.779924 323.39312,118.619004 L321.257609,133.951212 L318.110541,133.951212 L320.133657,119.648779 L320.133657,119.191102 C320.058726,119.114822 319.946332,119.076682 319.796471,119.076682 L312.378382,119.076682 L310.355267,133.951212 L307.208199,133.951212 L309.680895,116.673873 L321.594795,116.673873 Z M317.21336,133.464981 L316.372971,139.998413 L322.015587,139.998413 L320.935086,142.611786 L312.891356,142.611786 L313.971857,135.484406 C313.171482,136.909889 312.251064,138.256158 311.210577,139.523254 C310.090051,140.790351 309.009561,141.819851 307.969073,142.611786 L303.166846,142.611786 C304.687559,141.661464 306.088195,140.592367 307.368795,139.404465 C308.649395,138.216562 309.689867,137.028677 310.490242,135.840775 C311.21058,134.652872 311.770834,133.583776 312.171022,132.633453 C313.291547,129.544906 314.09191,125.506098 314.572135,120.516907 L317.573527,120.516907 C316.372965,127.565129 315.452547,131.881111 314.812247,133.464981 L317.21336,133.464981 Z M364.59375,128.578125 L356.390625,128.578125 L354.867188,139.710938 L364.007812,139.710938 L362.835938,142.289062 L351,142.289062 L352.992188,128.578125 L351.9375,128.578125 C351.156246,130.375009 349.75001,132.640611 347.71875,135.375 C345.68749,138.109389 343.734384,140.414053 341.859375,142.289062 L336.9375,142.289062 C338.031255,141.273432 339.359367,139.945321 340.921875,138.304688 C342.406257,136.74218 343.851555,135.023447 345.257812,133.148438 C346.585944,131.351554 347.562497,129.828131 348.1875,128.578125 L339.28125,128.578125 L339.75,125.765625 L349.125,125.765625 C349.671878,123.968741 350.140623,121.898449 350.53125,119.554688 L342.328125,119.554688 L342.796875,116.859375 L364.359375,116.859375 L363.890625,119.554688 L354.164062,119.554688 C353.617185,122.367202 353.148439,124.437493 352.757812,125.765625 L365.0625,125.765625 L364.59375,128.578125 Z M392.032774,119.748901 L388.443978,125.644847 C389.959255,128.881853 390.716882,131.348106 390.716882,133.043681 C390.716882,133.583182 390.637132,134.08414 390.477629,134.546569 C390.318126,135.008999 390.118751,135.394351 389.879497,135.702637 C389.560491,136.087995 389.16174,136.396277 388.683231,136.627491 C388.124971,136.935778 387.40722,137.089919 386.529954,137.089919 L384.61593,137.089919 L383.778544,134.430963 L385.453315,134.430963 C386.011575,134.430963 386.490076,134.276822 386.888834,133.968535 C387.287591,133.660249 387.486966,133.236362 387.486966,132.696861 C387.486966,131.001286 386.809089,128.650638 385.453315,125.644847 C386.888841,123.255628 388.005344,121.136192 388.802858,119.286474 C388.882609,119.132331 388.802859,119.05526 388.563605,119.05526 L385.812195,119.05526 L382.462652,142.754651 L379.232736,142.754651 L383.060785,116.511911 L391.315015,116.511911 C391.713772,116.511911 392.032773,116.588981 392.272027,116.743124 C392.43153,116.897268 392.51128,117.128479 392.51128,117.436765 C392.51128,118.284553 392.35178,119.055257 392.032774,119.748901 Z M405.367344,129.91187 L398.834563,129.91187 C398.916737,130.618989 399.081082,131.365382 399.327603,132.151071 C399.574124,133.015328 399.820642,133.722437 400.067163,134.272419 C400.642379,133.879575 401.176501,133.408169 401.669543,132.858187 C402.080412,132.308205 402.450188,131.679663 402.778883,130.972544 L406.476684,130.972544 C405.983642,132.151076 405.285175,133.21174 404.381264,134.154566 C403.477352,135.175961 402.491282,136.000922 401.423023,136.629473 C401.833892,137.100886 402.4091,137.611576 403.148664,138.161558 C403.806054,138.71154 404.709951,139.300797 405.860384,139.929348 L404.134744,142.757812 C402.819964,141.972124 401.628462,141.068596 400.560203,140.047201 C399.40977,139.104374 398.464786,137.847292 397.725223,136.275915 C396.903485,134.783106 396.287191,132.661779 395.876322,129.91187 L395.013502,129.91187 L393.534382,140.047201 L398.218263,140.047201 L397.108922,142.63996 L389.959841,142.63996 L393.780902,116.476663 L405.244084,116.476663 C406.065821,116.476663 406.599943,116.594515 406.846464,116.830221 C407.010812,117.144497 407.051898,117.69447 406.969724,118.480159 L405.367344,129.91187 Z M403.518444,119.069422 L396.492622,119.069422 L396.122842,121.897887 L403.395184,121.897887 L403.764964,119.42298 C403.764964,119.187274 403.682791,119.069422 403.518444,119.069422 Z M395.753062,124.372793 L395.383282,127.31911 L402.532363,127.31911 L403.025403,124.372793 L395.753062,124.372793 Z M449.296875,116.742188 L448.945312,119.4375 L446.015625,119.4375 L442.96875,142.40625 L434.0625,142.40625 L433.242188,139.710938 L439.804688,139.710938 L442.617188,119.4375 L422.695312,119.4375 L423.164062,116.742188 L449.296875,116.742188 Z M438.046875,125.648438 L436.523438,136.195312 L423.046875,136.195312 L424.921875,123.1875 L436.171875,123.1875 C437.031254,123.1875 437.617186,123.343748 437.929688,123.65625 C438.164064,124.046877 438.203126,124.710933 438.046875,125.648438 Z M434.648438,126.234375 C434.726563,125.921873 434.609377,125.765625 434.296875,125.765625 L427.851562,125.765625 L426.679688,133.617188 L433.476562,133.617188 L434.648438,126.234375 Z M474.890625,122.953125 L473.835938,124.59375 L463.640625,124.59375 C465.750011,122.015612 467.820302,119.20314 469.851562,116.15625 L473.601562,116.15625 C471.960929,118.656262 470.476569,120.64843 469.148438,122.132812 L474.539062,122.132812 C474.148436,120.882806 473.757814,119.47657 473.367188,117.914062 L476.53125,117.914062 C477.156253,119.945323 477.937495,122.171863 478.875,124.59375 L475.359375,124.59375 L474.890625,122.953125 Z M482.625,122.953125 L482.273438,126.117188 L491.0625,126.117188 L489.890625,128.695312 L478.640625,128.695312 L480.398438,116.15625 L483.679688,116.15625 L483.09375,120.257812 C485.828139,119.710935 488.523424,119.007817 491.179688,118.148438 L490.828125,120.960938 C489.656244,121.273439 488.367195,121.624998 486.960938,122.015625 C485.476555,122.406252 484.031257,122.718749 482.625,122.953125 Z M474.890625,126.351562 C475.671879,126.351562 476.179686,126.468749 476.414062,126.703125 C476.648439,126.937501 476.687501,127.367184 476.53125,127.992188 L474.421875,142.992188 L468.679688,142.992188 L467.859375,140.53125 L471.492188,140.53125 L471.960938,137.835938 L466.921875,137.835938 L466.101562,142.992188 L462.820312,142.992188 L465.398438,126.351562 L474.890625,126.351562 Z M472.898438,128.8125 L468.210938,128.8125 L467.859375,130.804688 L473.015625,130.804688 L473.25,129.164062 C473.328125,128.929686 473.210939,128.8125 472.898438,128.8125 Z M488.835938,134.671875 C486.492176,135.453129 483.757828,136.156247 480.632812,136.78125 L480.046875,140.53125 L488.953125,140.53125 L487.78125,142.992188 L476.53125,142.992188 L478.523438,129.867188 L481.6875,129.867188 L481.101562,133.96875 C483.835951,133.421872 486.531237,132.718754 489.1875,131.859375 L488.835938,134.671875 Z M467.273438,135.375 L472.3125,135.375 L472.664062,133.265625 L467.507812,133.265625 L467.273438,135.375 Z" id="去探索世界，发现无限可能"></path>
                <path d="M31.88,26.76 L28.68,44.92 L52.2,44.92 L51,51.8 L27.48,51.8 L24.28,69.96 L50.36,69.96 L49.08,77 L15.64,77 L25.8,19.72 L59.24,19.72 L57.96,26.76 L31.88,26.76 Z M81.08,77 L73.88,62.44 L73.8,62.44 L61.88,77 L53,77 L70.28,56.84 L60.36,37.8 L68.68,37.8 L75.56,51.56 L75.64,51.56 L87.08,37.8 L96.04,37.8 L79,57.24 L89.4,77 L81.08,77 Z M122.2,36.52 C124.493345,36.52 126.626657,36.9466624 128.6,37.8 C130.573343,38.6533376 132.293326,39.8666588 133.76,41.44 C135.226674,43.0133412 136.373329,44.933322 137.2,47.2 C138.026671,49.466678 138.44,52.0133192 138.44,54.84 C138.44,57.8800152 137.866672,60.799986 136.72,63.6 C135.573328,66.400014 133.986677,68.8933224 131.96,71.08 C129.933323,73.2666776 127.533347,75.0133268 124.76,76.32 C121.986653,77.6266732 118.97335,78.28 115.72,78.28 C113.05332,78.28 110.640011,77.6400064 108.48,76.36 C106.319989,75.0799936 104.680006,73.4800096 103.56,71.56 L103.24,71.56 L102.6,77 L99.48,94.28 L92.12,94.28 L102.12,37.8 L109.16,37.8 L108.2,43.24 L108.52,43.24 C109.85334,41.4266576 111.626656,39.85334 113.84,38.52 C116.053344,37.18666 118.839983,36.52 122.2,36.52 Z M116.28,71.56 C118.306677,71.56 120.213324,71.1466708 122,70.32 C123.786676,69.4933292 125.333327,68.346674 126.64,66.88 C127.946673,65.413326 128.986663,63.6933432 129.76,61.72 C130.533337,59.7466568 130.92,57.6133448 130.92,55.32 C130.92,51.5333144 130.000009,48.573344 128.16,46.44 C126.319991,44.306656 123.640018,43.24 120.12,43.24 C118.03999,43.24 116.093342,43.706662 114.28,44.64 C112.466658,45.573338 110.906673,46.8133256 109.6,48.36 C108.293327,49.9066744 107.26667,51.67999 106.52,53.68 C105.77333,55.68001 105.4,57.746656 105.4,59.88 C105.4,63.7200192 106.43999,66.6266568 108.52,68.6 C110.60001,70.5733432 113.186651,71.56 116.28,71.56 Z M139.72,77 L149.8,19.72 L157.16,19.72 L147.08,77 L139.72,77 Z M180.04,36.52 C182.760014,36.52 185.253322,37.0133284 187.52,38 C189.786678,38.9866716 191.719992,40.3333248 193.32,42.04 C194.920008,43.7466752 196.159996,45.733322 197.04,48 C197.920004,50.266678 198.36,52.6799872 198.36,55.24 C198.36,58.4933496 197.773339,61.519986 196.6,64.32 C195.426661,67.120014 193.80001,69.5599896 191.72,71.64 C189.63999,73.7200104 187.160014,75.3466608 184.28,76.52 C181.399986,77.6933392 178.280017,78.28 174.92,78.28 C172.199986,78.28 169.706678,77.7866716 167.44,76.8 C165.173322,75.8133284 163.240008,74.4666752 161.64,72.76 C160.039992,71.0533248 158.800004,69.066678 157.92,66.8 C157.039996,64.533322 156.6,62.1200128 156.6,59.56 C156.6,56.3066504 157.186661,53.280014 158.36,50.48 C159.533339,47.679986 161.15999,45.2400104 163.24,43.16 C165.32001,41.0799896 167.799986,39.4533392 170.68,38.28 C173.560014,37.1066608 176.679983,36.52 180.04,36.52 Z M175.64,71.56 C177.986678,71.56 180.106657,71.1200044 182,70.24 C183.893343,69.3599956 185.493327,68.186674 186.8,66.72 C188.106673,65.253326 189.106663,63.5733428 189.8,61.68 C190.493337,59.7866572 190.84,57.8000104 190.84,55.72 C190.84,53.9066576 190.533336,52.2400076 189.92,50.72 C189.306664,49.1999924 188.480005,47.8800056 187.44,46.76 C186.399995,45.6399944 185.17334,44.7733364 183.76,44.16 C182.34666,43.5466636 180.866674,43.24 179.32,43.24 C176.973322,43.24 174.853343,43.6799956 172.96,44.56 C171.066657,45.4400044 169.466673,46.613326 168.16,48.08 C166.853327,49.546674 165.853337,51.2266572 165.16,53.12 C164.466663,55.0133428 164.12,56.9999896 164.12,59.08 C164.12,60.8933424 164.426664,62.5599924 165.04,64.08 C165.653336,65.6000076 166.479995,66.9199944 167.52,68.04 C168.560005,69.1600056 169.78666,70.0266636 171.2,70.64 C172.61334,71.2533364 174.093326,71.56 175.64,71.56 Z M199.64,77 L206.52,37.8 L213.56,37.8 L212.44,44.2 L212.76,44.2 C213.986673,41.9599888 215.759988,40.1466736 218.08,38.76 C220.400012,37.3733264 222.89332,36.68 225.56,36.68 C226.786673,36.68 227.73333,36.7599992 228.4,36.92 C229.06667,37.0800008 229.746663,37.3199984 230.44,37.64 L227.32,44.76 C226.626663,44.5466656 225.973336,44.4000004 225.36,44.32 C224.746664,44.2399996 223.986671,44.2 223.08,44.2 C221.639993,44.2 220.240007,44.4933304 218.88,45.08 C217.519993,45.6666696 216.280006,46.4799948 215.16,47.52 C214.039994,48.5600052 213.093337,49.813326 212.32,51.28 C211.546663,52.746674 211.000002,54.3599912 210.68,56.12 L207,77 L199.64,77 Z M263.56,67.72 C261.47999,71.186684 258.81335,73.8133244 255.56,75.6 C252.30665,77.3866756 248.813352,78.28 245.08,78.28 C242.199986,78.28 239.653344,77.8000048 237.44,76.84 C235.226656,75.8799952 233.360008,74.5866748 231.84,72.96 C230.319992,71.3333252 229.173337,69.4400108 228.4,67.28 C227.626663,65.1199892 227.24,62.8133456 227.24,60.36 C227.24,57.3199848 227.759995,54.3733476 228.8,51.52 C229.840005,48.6666524 231.346657,46.1200112 233.32,43.88 C235.293343,41.6399888 237.679986,39.85334 240.48,38.52 C243.280014,37.18666 246.413316,36.52 249.88,36.52 C252.600014,36.52 254.99999,36.9466624 257.08,37.8 C259.16001,38.6533376 260.893326,39.8266592 262.28,41.32 C263.666674,42.8133408 264.706663,44.5466568 265.4,46.52 C266.093337,48.4933432 266.44,50.6266552 266.44,52.92 C266.44,53.8800048 266.386667,54.893328 266.28,55.96 C266.173333,57.026672 265.986668,57.959996 265.72,58.76 L234.84,58.76 C234.786666,59.293336 234.76,59.7199984 234.76,60.04 L234.76,61.08 C234.76,62.8400088 235.066664,64.38666 235.68,65.72 C236.293336,67.05334 237.106662,68.1466624 238.12,69 C239.133338,69.8533376 240.279994,70.4933312 241.56,70.92 C242.840006,71.3466688 244.14666,71.56 245.48,71.56 C248.14668,71.56 250.533323,70.9200064 252.64,69.64 C254.746677,68.3599936 256.493326,66.653344 257.88,64.52 L263.56,67.72 Z M259,52.68 L259,51.8 C259,50.6799944 258.800002,49.6000052 258.4,48.56 C257.999998,47.5199948 257.386671,46.6133372 256.56,45.84 C255.733329,45.0666628 254.706673,44.4400024 253.48,43.96 C252.253327,43.4799976 250.813342,43.24 249.16,43.24 C245.959984,43.24 243.226678,44.106658 240.96,45.84 C238.693322,47.573342 237.106671,49.8533192 236.2,52.68 L259,52.68 Z M336.28,77 L328.76,77 L323.08,39.24 L322.76,39.24 L303.72,77 L296.2,77 L290.44,19.72 L297.96,19.72 L302.12,64.76 L302.44,64.76 L321.24,27.4 L328.28,27.4 L334.04,64.76 L334.36,64.76 L353.96,19.72 L361.64,19.72 L336.28,77 Z M377.32,36.52 C380.040014,36.52 382.533322,37.0133284 384.8,38 C387.066678,38.9866716 388.999992,40.3333248 390.6,42.04 C392.200008,43.7466752 393.439996,45.733322 394.32,48 C395.200004,50.266678 395.64,52.6799872 395.64,55.24 C395.64,58.4933496 395.053339,61.519986 393.88,64.32 C392.706661,67.120014 391.08001,69.5599896 389,71.64 C386.91999,73.7200104 384.440014,75.3466608 381.56,76.52 C378.679986,77.6933392 375.560017,78.28 372.2,78.28 C369.479986,78.28 366.986678,77.7866716 364.72,76.8 C362.453322,75.8133284 360.520008,74.4666752 358.92,72.76 C357.319992,71.0533248 356.080004,69.066678 355.2,66.8 C354.319996,64.533322 353.88,62.1200128 353.88,59.56 C353.88,56.3066504 354.466661,53.280014 355.64,50.48 C356.813339,47.679986 358.43999,45.2400104 360.52,43.16 C362.60001,41.0799896 365.079986,39.4533392 367.96,38.28 C370.840014,37.1066608 373.959983,36.52 377.32,36.52 Z M372.92,71.56 C375.266678,71.56 377.386657,71.1200044 379.28,70.24 C381.173343,69.3599956 382.773327,68.186674 384.08,66.72 C385.386673,65.253326 386.386663,63.5733428 387.08,61.68 C387.773337,59.7866572 388.12,57.8000104 388.12,55.72 C388.12,53.9066576 387.813336,52.2400076 387.2,50.72 C386.586664,49.1999924 385.760005,47.8800056 384.72,46.76 C383.679995,45.6399944 382.45334,44.7733364 381.04,44.16 C379.62666,43.5466636 378.146674,43.24 376.6,43.24 C374.253322,43.24 372.133343,43.6799956 370.24,44.56 C368.346657,45.4400044 366.746673,46.613326 365.44,48.08 C364.133327,49.546674 363.133337,51.2266572 362.44,53.12 C361.746663,55.0133428 361.4,56.9999896 361.4,59.08 C361.4,60.8933424 361.706664,62.5599924 362.32,64.08 C362.933336,65.6000076 363.759995,66.9199944 364.8,68.04 C365.840005,69.1600056 367.06666,70.0266636 368.48,70.64 C369.89334,71.2533364 371.373326,71.56 372.92,71.56 Z M396.92,77 L403.8,37.8 L410.84,37.8 L409.72,44.2 L410.04,44.2 C411.266673,41.9599888 413.039988,40.1466736 415.36,38.76 C417.680012,37.3733264 420.17332,36.68 422.84,36.68 C424.066673,36.68 425.01333,36.7599992 425.68,36.92 C426.34667,37.0800008 427.026663,37.3199984 427.72,37.64 L424.6,44.76 C423.906663,44.5466656 423.253336,44.4000004 422.64,44.32 C422.026664,44.2399996 421.266671,44.2 420.36,44.2 C418.919993,44.2 417.520007,44.4933304 416.16,45.08 C414.799993,45.6666696 413.560006,46.4799948 412.44,47.52 C411.319994,48.5600052 410.373337,49.813326 409.6,51.28 C408.826663,52.746674 408.280002,54.3599912 407.96,56.12 L404.28,77 L396.92,77 Z M426.36,77 L436.44,19.72 L443.8,19.72 L433.72,77 L426.36,77 Z M459.48,78.28 C457.186655,78.28 455.053343,77.8533376 453.08,77 C451.106657,76.1466624 449.386674,74.9333412 447.92,73.36 C446.453326,71.7866588 445.306671,69.866678 444.48,67.6 C443.653329,65.333322 443.24,62.7866808 443.24,59.96 C443.24,56.9199848 443.813328,54.000014 444.96,51.2 C446.106672,48.399986 447.693323,45.9066776 449.72,43.72 C451.746677,41.5333224 454.146653,39.7866732 456.92,38.48 C459.693347,37.1733268 462.70665,36.52 465.96,36.52 C468.62668,36.52 471.039989,37.1599936 473.2,38.44 C475.360011,39.7200064 476.999994,41.3199904 478.12,43.24 L478.44,43.24 L479.08,37.8 L482.28,19.72 L489.64,19.72 L479.56,77 L472.52,77 L473.48,71.56 L473.16,71.56 C471.82666,73.3733424 470.053344,74.94666 467.84,76.28 C465.626656,77.61334 462.840017,78.28 459.48,78.28 Z M465.4,43.24 C463.373323,43.24 461.466676,43.6533292 459.68,44.48 C457.893324,45.3066708 456.33334,46.453326 455,47.92 C453.66666,49.386674 452.62667,51.1066568 451.88,53.08 C451.13333,55.0533432 450.76,57.1866552 450.76,59.48 C450.76,63.2666856 451.679991,66.226656 453.52,68.36 C455.360009,70.493344 458.039982,71.56 461.56,71.56 C463.64001,71.56 465.586658,71.093338 467.4,70.16 C469.213342,69.226662 470.773327,67.9866744 472.08,66.44 C473.386673,64.8933256 474.41333,63.12001 475.16,61.12 C475.90667,59.11999 476.28,57.053344 476.28,54.92 C476.28,51.0799808 475.24001,48.1733432 473.16,46.2 C471.07999,44.2266568 468.493349,43.24 465.4,43.24 Z" id="ExploreWorld"></path>
            </g>
        </g>
    </g>
</svg>